<svg width="52" height="55" viewBox="0 0 52 55" fill="none" xmlns="http://www.w3.org/2000/svg">
<path d="M49.7916 33.36C49.7218 33.1898 49.6036 33.0437 49.4516 32.94C46.8473 31.5024 44.4686 29.6897 42.3917 27.56C39.745 24.9208 37.6985 21.7419 36.3917 18.24C35.6617 16.24 35.0017 14.1701 34.2717 12.1401C33.9946 11.3015 33.6605 10.4829 33.2717 9.69004C31.3654 5.97138 28.1961 3.05389 24.3327 1.46125C20.4693 -0.131392 16.1647 -0.294909 12.1916 1.00004C11.3964 1.26926 10.6184 1.58652 9.86165 1.95005C6.64259 3.46135 3.9854 5.95403 2.27169 9.07005C1.07305 11.1136 0.327688 13.391 0.0861404 15.7478C-0.155407 18.1046 0.11248 20.4858 0.871663 22.7301C1.48166 24.6601 2.16158 26.5601 2.79158 28.4801C3.89958 31.7876 4.35476 35.2789 4.13167 38.76C3.89606 42.2707 3.04651 45.7129 1.62166 48.93C1.56801 49.0548 1.54036 49.1892 1.54036 49.3251C1.54036 49.4609 1.56801 49.5952 1.62166 49.72C2.06166 50.9733 2.48167 52.2233 2.88167 53.47C2.92785 53.646 3.02117 53.806 3.15157 53.9329C3.28197 54.0598 3.44449 54.1487 3.62166 54.19C3.82906 54.2541 4.04464 54.2877 4.26168 54.29C5.41168 54.29 6.57163 54.29 7.71163 54.12C10.9802 53.695 14.2126 53.0264 17.3817 52.12L19.0516 51.63C21.6116 50.84 25.7417 49.49 29.5017 48.23C32.7117 47.15 35.6517 46.1301 37.1217 45.5801C37.3617 45.4901 37.5716 45.42 37.7216 45.35C39.9216 44.47 42.0916 43.52 44.2316 42.5C45.8916 41.7 47.5016 40.79 49.0916 39.86C49.7438 39.433 50.3532 38.9441 50.9116 38.4C51.0619 38.2585 51.1647 38.0739 51.2059 37.8715C51.2471 37.6692 51.2247 37.4591 51.1417 37.27C50.6417 35.94 50.2416 34.64 49.7916 33.36Z" fill="#BF8651"/>
</svg>
