<svg width="654" height="911" viewBox="0 0 654 911" fill="none" xmlns="http://www.w3.org/2000/svg">
<path d="M187.47 779.45H109.21C106.31 779.45 103.96 781.801 103.96 784.7V862.96C103.96 865.86 106.31 868.21 109.21 868.21H187.47C190.369 868.21 192.72 865.86 192.72 862.96V784.7C192.72 781.801 190.369 779.45 187.47 779.45Z" fill="#E6E6E6"/>
<path d="M163.42 777.45H153.17L160.42 770.2L157.59 767.37L150.34 774.62V764.37H146.34V774.62L139.09 767.37L136.26 770.2L143.51 777.45H133.26V781.45H143.51L136.26 788.7L139.09 791.53L146.34 784.28V794.53H150.34V784.28L157.59 791.53L160.42 788.7L153.17 781.45H163.42V777.45Z" fill="#CCCCCC"/>
<path d="M272.29 670.2V776.53C272.29 781.29 287.85 785.15 307.05 785.15C326.25 785.15 341.81 781.29 341.81 776.53V670.2H272.29Z" fill="#BF8651"/>
<path d="M307.05 674.63C319.58 714.16 374.11 699.85 379.15 677.49C383.642 685.304 390.079 691.822 397.835 696.413C405.592 701.003 414.403 703.509 423.415 703.687C432.426 703.865 441.33 701.71 449.261 697.429C457.193 693.149 463.883 686.89 468.68 679.26C476.49 692.78 493.12 699.6 508.68 698.65C524.24 697.7 538.78 690.02 550.94 680.22C554.077 677.505 556.626 674.176 558.43 670.44C568.43 651.09 563.26 627.31 546.65 613.2C544.92 611.89 485.86 549.8 485.86 549.8C511.94 563.36 529.28 548.21 532.62 531.31C532.62 531.23 532.62 531.14 532.62 531.06C533.775 524.93 533.379 518.609 531.468 512.671C529.558 506.733 526.193 501.366 521.68 497.06C502.19 478.25 459.34 436.06 448.47 418.67C464.89 426.27 485.94 424.03 499.15 411.67C499.6 411.25 500.03 410.82 500.46 410.37C515.9 394.37 511.79 367.85 492.78 356.25C422.59 313.47 422.94 302.1 422.94 302.1C426.055 304.553 429.777 306.115 433.71 306.62C437.642 307.125 441.638 306.554 445.272 304.967C448.905 303.381 452.041 300.838 454.344 297.611C456.647 294.384 458.031 290.592 458.35 286.64C459.45 273.08 448.11 261.79 436.54 254.64C424.97 247.49 377.44 208.54 370.54 190.77C372.358 194.293 375.132 197.234 378.542 199.256C381.953 201.277 385.864 202.299 389.828 202.203C393.792 202.107 397.649 200.897 400.958 198.713C404.266 196.529 406.894 193.457 408.54 189.85C412.7 180.7 409.75 169.59 403.78 161.5C397.81 153.41 389.25 147.7 380.96 142.02C351.05 121.54 320.96 97.81 307.22 64.25H306.74C293.01 97.81 262.92 121.54 233 142.02C224.71 147.7 216.16 153.42 210.19 161.5C204.22 169.58 201.26 180.7 205.43 189.85C207.073 193.46 209.7 196.535 213.009 198.722C216.318 200.909 220.176 202.119 224.142 202.215C228.107 202.311 232.02 201.289 235.431 199.265C238.842 197.24 241.614 194.297 243.43 190.77C236.52 208.54 189 247.51 177.43 254.64C165.86 261.77 154.52 273.07 155.61 286.64C155.927 290.594 157.312 294.387 159.615 297.616C161.919 300.845 165.056 303.389 168.691 304.975C172.326 306.562 176.324 307.133 180.258 306.626C184.192 306.12 187.915 304.556 191.03 302.1C191.03 302.1 191.37 313.47 121.18 356.25C102.18 367.85 98.06 394.32 113.5 410.37C113.93 410.82 114.37 411.25 114.82 411.67C128.02 424.04 149.07 426.28 165.49 418.67C154.63 436.08 111.77 478.25 92.28 497.06C87.7672 501.366 84.4024 506.733 82.4917 512.671C80.5811 518.609 80.1852 524.93 81.34 531.06C81.34 531.14 81.34 531.23 81.39 531.31C84.74 548.21 102.08 563.36 128.15 549.8C128.15 549.8 69.09 611.89 67.36 613.2C50.75 627.31 45.58 651.09 55.58 670.44C57.3841 674.179 59.9368 677.508 63.08 680.22C75.23 690.02 89.74 697.69 105.33 698.65C120.92 699.61 137.55 692.78 145.33 679.26C150.118 686.925 156.812 693.216 164.758 697.52C172.705 701.823 181.632 703.992 190.667 703.813C199.702 703.635 208.537 701.116 216.307 696.502C224.078 691.888 230.518 685.337 235 677.49C237.11 697.8 286.86 714.85 307.05 674.63Z" fill="#326E60"/>
<path d="M313.42 749.95H191.23C188.33 749.95 185.98 752.301 185.98 755.2V877.39C185.98 880.29 188.33 882.64 191.23 882.64H313.42C316.319 882.64 318.67 880.29 318.67 877.39V755.2C318.67 752.301 316.319 749.95 313.42 749.95Z" fill="#CCCCCC"/>
<path d="M574.84 722.34H382.2C379.301 722.34 376.95 724.691 376.95 727.59V842.52C376.95 845.42 379.301 847.77 382.2 847.77H574.84C577.74 847.77 580.09 845.42 580.09 842.52V727.59C580.09 724.691 577.74 722.34 574.84 722.34Z" fill="#999999"/>
<path d="M580.09 781.56H435.78L443.94 773.39L438.99 768.44L431.32 776.12V722.34H424.32V777.02L415.66 768.37L410.71 773.32L418.95 781.56H376.95V788.56H418.88L410.71 796.72L415.66 801.67L424.32 793.01V847.77H431.32V793.92L438.99 801.6L443.94 796.65L435.85 788.56H580.09V781.56Z" fill="#B3B3B3"/>
<path d="M256.83 749.95H247.83V882.64H256.83V749.95Z" fill="#B3B3B3"/>
<path d="M318.68 811.79H185.99V820.79H318.68V811.79Z" fill="#B3B3B3"/>
<path d="M218.17 760.7L222.54 751.8C222.821 751.224 222.967 750.591 222.967 749.95C222.967 749.309 222.821 748.676 222.54 748.1L218.17 739.2C217.78 738.412 217.648 737.522 217.793 736.655C217.937 735.788 218.35 734.988 218.974 734.369C219.597 733.75 220.4 733.342 221.268 733.204C222.136 733.066 223.025 733.205 223.81 733.6L249 746.2C249.697 746.548 250.284 747.083 250.694 747.745C251.104 748.407 251.321 749.171 251.321 749.95C251.321 750.729 251.104 751.493 250.694 752.155C250.284 752.817 249.697 753.352 249 753.7L223.8 766.3C223.015 766.685 222.13 766.815 221.268 766.673C220.405 766.531 219.609 766.123 218.989 765.507C218.369 764.89 217.957 764.096 217.811 763.234C217.664 762.373 217.79 761.487 218.17 760.7V760.7Z" fill="#B3B3B3"/>
<path d="M286.49 739.2L282.12 748.1C281.839 748.676 281.693 749.309 281.693 749.95C281.693 750.591 281.839 751.224 282.12 751.8L286.49 760.7C286.873 761.488 287 762.376 286.853 763.239C286.706 764.103 286.293 764.899 285.672 765.516C285.05 766.133 284.251 766.54 283.386 766.681C282.522 766.822 281.635 766.688 280.85 766.3L255.65 753.7C254.953 753.352 254.366 752.817 253.956 752.155C253.546 751.493 253.329 750.729 253.329 749.95C253.329 749.171 253.546 748.407 253.956 747.745C254.366 747.083 254.953 746.548 255.65 746.2L280.85 733.6C281.635 733.205 282.524 733.066 283.392 733.204C284.26 733.342 285.063 733.75 285.687 734.369C286.31 734.988 286.723 735.788 286.867 736.655C287.012 737.522 286.88 738.412 286.49 739.2V739.2Z" fill="#B3B3B3"/>
<path d="M257.84 743.27H246.82C246.174 743.27 245.65 743.794 245.65 744.44V755.46C245.65 756.106 246.174 756.63 246.82 756.63H257.84C258.486 756.63 259.01 756.106 259.01 755.46V744.44C259.01 743.794 258.486 743.27 257.84 743.27Z" fill="#B3B3B3"/>
<path d="M379.81 136.24C372.12 157.3 356.47 174.53 337.86 186.65C316.74 200.39 292.07 207.33 267.23 210.27C252.147 211.936 236.971 212.604 221.8 212.27C221.538 212.273 221.281 212.344 221.054 212.476C220.828 212.608 220.64 212.797 220.509 213.024C220.378 213.252 220.308 213.509 220.306 213.771C220.305 214.033 220.371 214.291 220.5 214.52C237.5 241.39 261.22 263.64 288.34 280.14C315.821 296.836 346.467 307.65 378.34 311.9C396.254 314.301 414.401 314.402 432.34 312.2L431.04 309.94C418.969 327.666 404.874 343.926 389.04 358.39C373.117 372.96 355.685 385.789 337.04 396.66C318.415 407.542 298.726 416.492 278.28 423.37C257.805 430.291 236.659 435.038 215.19 437.53C193.951 439.996 172.502 440.053 151.25 437.7C148.583 437.4 145.893 437.067 143.18 436.7C142.83 436.612 142.461 436.652 142.138 436.813C141.815 436.974 141.561 437.245 141.421 437.578C141.281 437.91 141.264 438.281 141.374 438.625C141.484 438.968 141.713 439.261 142.02 439.45C143.22 440.253 144.344 441.164 145.38 442.17C147.07 443.69 148.69 445.28 150.3 446.87C154.88 451.4 159.39 456.01 163.98 460.52C177.815 474.212 192.511 487.005 207.98 498.82C228.986 514.778 251.618 528.474 275.5 539.68C305.016 553.413 336.226 563.165 368.31 568.68C408.11 575.56 448.82 576.07 488.91 571.54C494.31 570.933 499.697 570.237 505.07 569.45C506.98 569.18 506.17 566.29 504.28 566.56C463.41 572.46 421.67 573.41 380.73 567.62C320.929 559.365 264.127 536.338 215.46 500.62C199.239 488.723 183.868 475.708 169.46 461.67C164.52 456.89 159.68 452.01 154.83 447.15C151.822 443.972 148.637 440.968 145.29 438.15C144.71 437.69 144.12 437.24 143.5 436.84L142.35 439.58C163.841 442.653 185.614 443.247 207.24 441.35C228.914 439.437 250.325 435.243 271.12 428.84C292.092 422.387 312.348 413.802 331.57 403.22C350.727 392.683 368.714 380.146 385.23 365.82C401.604 351.662 416.291 335.663 429 318.14C430.61 315.92 432.18 313.67 433.71 311.41C433.844 311.182 433.915 310.923 433.917 310.659C433.918 310.395 433.85 310.136 433.719 309.906C433.589 309.677 433.4 309.486 433.171 309.354C432.943 309.221 432.684 309.151 432.42 309.15C401.13 313.06 369.17 309.59 339.18 299.98C308.873 290.38 280.953 274.448 257.27 253.24C244.113 241.433 232.619 227.896 223.1 213L221.8 215.26C249.34 215.67 277.35 214.03 303.8 205.77C326.22 198.77 347.33 186.69 363.17 169.15C371.686 159.789 378.318 148.873 382.7 137C383.36 135.18 380.46 134.4 379.81 136.2V136.24Z" fill="black"/>
<path d="M352.77 257.14C361.308 257.14 368.23 250.218 368.23 241.68C368.23 233.142 361.308 226.22 352.77 226.22C344.232 226.22 337.31 233.142 337.31 241.68C337.31 250.218 344.232 257.14 352.77 257.14Z" fill="#682332"/>
<path d="M212.44 370.25C220.978 370.25 227.9 363.328 227.9 354.79C227.9 346.252 220.978 339.33 212.44 339.33C203.902 339.33 196.98 346.252 196.98 354.79C196.98 363.328 203.902 370.25 212.44 370.25Z" fill="#682332"/>
<path d="M262.12 602.28C270.659 602.28 277.58 595.358 277.58 586.82C277.58 578.282 270.659 571.36 262.12 571.36C253.582 571.36 246.66 578.282 246.66 586.82C246.66 595.358 253.582 602.28 262.12 602.28Z" fill="#682332"/>
<path d="M371.05 493.35C379.588 493.35 386.51 486.428 386.51 477.89C386.51 469.352 379.588 462.43 371.05 462.43C362.511 462.43 355.59 469.352 355.59 477.89C355.59 486.428 362.511 493.35 371.05 493.35Z" fill="#682332"/>
<path d="M134.77 642.73C143.308 642.73 150.23 635.808 150.23 627.27C150.23 618.732 143.308 611.81 134.77 611.81C126.232 611.81 119.31 618.732 119.31 627.27C119.31 635.808 126.232 642.73 134.77 642.73Z" fill="#682332"/>
<path d="M274.47 167.56C283.008 167.56 289.93 160.638 289.93 152.1C289.93 143.562 283.008 136.64 274.47 136.64C265.931 136.64 259.01 143.562 259.01 152.1C259.01 160.638 265.931 167.56 274.47 167.56Z" fill="#661715"/>
<path d="M432.8 646.31C441.338 646.31 448.26 639.388 448.26 630.85C448.26 622.312 441.338 615.39 432.8 615.39C424.262 615.39 417.34 622.312 417.34 630.85C417.34 639.388 424.262 646.31 432.8 646.31Z" fill="#682332"/>
<path d="M355.59 180.18C359.075 180.18 361.9 177.355 361.9 173.87C361.9 170.385 359.075 167.56 355.59 167.56C352.105 167.56 349.28 170.385 349.28 173.87C349.28 177.355 352.105 180.18 355.59 180.18Z" fill="#F2F2F2"/>
<path d="M310.26 296.34C313.745 296.34 316.57 293.515 316.57 290.03C316.57 286.545 313.745 283.72 310.26 283.72C306.775 283.72 303.95 286.545 303.95 290.03C303.95 293.515 306.775 296.34 310.26 296.34Z" fill="#F2F2F2"/>
<path d="M345.54 309.19C349.025 309.19 351.85 306.365 351.85 302.88C351.85 299.395 349.025 296.57 345.54 296.57C342.055 296.57 339.23 299.395 339.23 302.88C339.23 306.365 342.055 309.19 345.54 309.19Z" fill="#F2F2F2"/>
<path d="M386.52 318.48C390.005 318.48 392.83 315.655 392.83 312.17C392.83 308.685 390.005 305.86 386.52 305.86C383.035 305.86 380.21 308.685 380.21 312.17C380.21 315.655 383.035 318.48 386.52 318.48Z" fill="#F2F2F2"/>
<path d="M432.8 318.48C436.285 318.48 439.11 315.655 439.11 312.17C439.11 308.685 436.285 305.86 432.8 305.86C429.315 305.86 426.49 308.685 426.49 312.17C426.49 315.655 429.315 318.48 432.8 318.48Z" fill="#F2F2F2"/>
<path d="M403.9 352.15C407.385 352.15 410.21 349.325 410.21 345.84C410.21 342.355 407.385 339.53 403.9 339.53C400.415 339.53 397.59 342.355 397.59 345.84C397.59 349.325 400.415 352.15 403.9 352.15Z" fill="#F2F2F2"/>
<path d="M361.9 387.01C365.385 387.01 368.21 384.185 368.21 380.7C368.21 377.215 365.385 374.39 361.9 374.39C358.415 374.39 355.59 377.215 355.59 380.7C355.59 384.185 358.415 387.01 361.9 387.01Z" fill="#F2F2F2"/>
<path d="M316.56 416.17C320.045 416.17 322.87 413.345 322.87 409.86C322.87 406.375 320.045 403.55 316.56 403.55C313.075 403.55 310.25 406.375 310.25 409.86C310.25 413.345 313.075 416.17 316.56 416.17Z" fill="#F2F2F2"/>
<path d="M307.05 557.8C310.535 557.8 313.36 554.975 313.36 551.49C313.36 548.005 310.535 545.18 307.05 545.18C303.565 545.18 300.74 548.005 300.74 551.49C300.74 554.975 303.565 557.8 307.05 557.8Z" fill="#F2F2F2"/>
<path d="M371.05 574.5C374.535 574.5 377.36 571.675 377.36 568.19C377.36 564.705 374.535 561.88 371.05 561.88C367.565 561.88 364.74 564.705 364.74 568.19C364.74 571.675 367.565 574.5 371.05 574.5Z" fill="#F2F2F2"/>
<path d="M439.11 579.26C442.595 579.26 445.42 576.435 445.42 572.95C445.42 569.465 442.595 566.64 439.11 566.64C435.625 566.64 432.8 569.465 432.8 572.95C432.8 576.435 435.625 579.26 439.11 579.26Z" fill="#F2F2F2"/>
<path d="M504.72 572.95C508.205 572.95 511.03 570.125 511.03 566.64C511.03 563.155 508.205 560.33 504.72 560.33C501.235 560.33 498.41 563.155 498.41 566.64C498.41 570.125 501.235 572.95 504.72 572.95Z" fill="#F2F2F2"/>
<path d="M268.43 433.92C271.915 433.92 274.74 431.095 274.74 427.61C274.74 424.125 271.915 421.3 268.43 421.3C264.945 421.3 262.12 424.125 262.12 427.61C262.12 431.095 264.945 433.92 268.43 433.92Z" fill="#F2F2F2"/>
<path d="M255.17 534.05C258.655 534.05 261.48 531.225 261.48 527.74C261.48 524.255 258.655 521.43 255.17 521.43C251.685 521.43 248.86 524.255 248.86 527.74C248.86 531.225 251.685 534.05 255.17 534.05Z" fill="#F2F2F2"/>
<path d="M210.56 445C214.045 445 216.87 442.175 216.87 438.69C216.87 435.205 214.045 432.38 210.56 432.38C207.075 432.38 204.25 435.205 204.25 438.69C204.25 442.175 207.075 445 210.56 445Z" fill="#F2F2F2"/>
<path d="M210.56 505.97C214.045 505.97 216.87 503.145 216.87 499.66C216.87 496.175 214.045 493.35 210.56 493.35C207.075 493.35 204.25 496.175 204.25 499.66C204.25 503.145 207.075 505.97 210.56 505.97Z" fill="#F2F2F2"/>
<path d="M172.21 475.04C175.695 475.04 178.52 472.215 178.52 468.73C178.52 465.245 175.695 462.42 172.21 462.42C168.725 462.42 165.9 465.245 165.9 468.73C165.9 472.215 168.725 475.04 172.21 475.04Z" fill="#F2F2F2"/>
<path d="M142.84 445C146.325 445 149.15 442.175 149.15 438.69C149.15 435.205 146.325 432.38 142.84 432.38C139.355 432.38 136.53 435.205 136.53 438.69C136.53 442.175 139.355 445 142.84 445Z" fill="#F2F2F2"/>
<path d="M380.85 142.95C384.335 142.95 387.16 140.125 387.16 136.64C387.16 133.155 384.335 130.33 380.85 130.33C377.365 130.33 374.54 133.155 374.54 136.64C374.54 140.125 377.365 142.95 380.85 142.95Z" fill="#F2F2F2"/>
<path d="M316.56 205.19C320.045 205.19 322.87 202.365 322.87 198.88C322.87 195.395 320.045 192.57 316.56 192.57C313.075 192.57 310.25 195.395 310.25 198.88C310.25 202.365 313.075 205.19 316.56 205.19Z" fill="#F2F2F2"/>
<path d="M276.98 276.07C280.465 276.07 283.29 273.245 283.29 269.76C283.29 266.275 280.465 263.45 276.98 263.45C273.495 263.45 270.67 266.275 270.67 269.76C270.67 273.245 273.495 276.07 276.98 276.07Z" fill="#F2F2F2"/>
<path d="M274.47 217.8C277.955 217.8 280.78 214.975 280.78 211.49C280.78 208.005 277.955 205.18 274.47 205.18C270.985 205.18 268.16 208.005 268.16 211.49C268.16 214.975 270.985 217.8 274.47 217.8Z" fill="#F2F2F2"/>
<path d="M248.86 254.3C252.345 254.3 255.17 251.475 255.17 247.99C255.17 244.505 252.345 241.68 248.86 241.68C245.375 241.68 242.55 244.505 242.55 247.99C242.55 251.475 245.375 254.3 248.86 254.3Z" fill="#F2F2F2"/>
<path d="M225.06 220.52C228.545 220.52 231.37 217.695 231.37 214.21C231.37 210.725 228.545 207.9 225.06 207.9C221.575 207.9 218.75 210.725 218.75 214.21C218.75 217.695 221.575 220.52 225.06 220.52Z" fill="#F2F2F2"/>
<path d="M192.74 577.33C192.8 577.155 192.8 576.965 192.74 576.79C191.658 574.022 190.985 571.112 190.74 568.15C190.384 564.432 190.83 560.68 192.05 557.15C192.77 555.15 193.56 553.15 194.29 551.08C194.596 550.253 194.853 549.408 195.06 548.55C195.95 544.46 195.351 540.186 193.371 536.498C191.392 532.809 188.161 529.949 184.26 528.43C183.473 528.129 182.668 527.879 181.85 527.68C178.404 526.809 174.771 527.051 171.47 528.37C169.246 529.191 167.225 530.48 165.543 532.15C163.861 533.82 162.557 535.832 161.72 538.05C160.98 539.93 160.29 541.83 159.56 543.71C158.32 546.968 156.459 549.953 154.08 552.5C151.671 555.066 148.831 557.192 145.69 558.78C145.565 558.835 145.453 558.914 145.36 559.014C145.267 559.114 145.196 559.232 145.15 559.36C144.7 560.6 144.24 561.84 143.75 563.06C143.678 563.222 143.651 563.399 143.67 563.575C143.689 563.75 143.755 563.918 143.86 564.06C143.979 564.243 144.124 564.408 144.29 564.55C145.21 565.25 146.1 565.99 147.07 566.61C149.878 568.342 152.809 569.866 155.84 571.17L157.45 571.84C159.93 572.84 163.97 574.43 167.68 575.84C170.85 577.04 173.76 578.12 175.25 578.63L175.86 578.84C178.12 579.553 180.4 580.19 182.7 580.75C184.49 581.19 186.31 581.51 188.13 581.8C188.908 581.875 189.692 581.875 190.47 581.8C190.674 581.785 190.869 581.709 191.028 581.58C191.187 581.451 191.303 581.277 191.36 581.08C191.76 579.86 192.27 578.6 192.74 577.33Z" fill="#BF8651"/>
<path d="M158.85 574.87C158.719 574.813 158.574 574.794 158.433 574.817C158.292 574.84 158.16 574.904 158.054 575C157.949 575.097 157.873 575.222 157.837 575.36C157.8 575.498 157.805 575.644 157.85 575.78C158.311 577.182 159.078 578.463 160.097 579.531C161.115 580.598 162.359 581.425 163.738 581.951C165.116 582.477 166.595 582.689 168.066 582.571C169.537 582.453 170.963 582.009 172.24 581.27C172.36 581.198 172.457 581.093 172.52 580.968C172.582 580.843 172.609 580.703 172.595 580.564C172.581 580.425 172.529 580.292 172.443 580.182C172.357 580.071 172.241 579.988 172.11 579.94C170.68 579.42 168.88 578.74 166.83 577.94C164.21 577 161.25 575.82 158.85 574.87Z" fill="#BF8651"/>
<path d="M467.7 421.36C467.63 421.19 467.512 421.044 467.36 420.94C464.756 419.502 462.377 417.69 460.3 415.56C457.653 412.921 455.607 409.742 454.3 406.24C453.57 404.24 452.91 402.17 452.18 400.14C451.903 399.302 451.569 398.483 451.18 397.69C449.274 393.971 446.104 391.054 442.241 389.461C438.378 387.869 434.073 387.705 430.1 389C429.305 389.269 428.527 389.587 427.77 389.95C424.551 391.461 421.894 393.954 420.18 397.07C418.981 399.114 418.236 401.391 417.994 403.748C417.753 406.105 418.021 408.486 418.78 410.73C419.39 412.66 420.07 414.56 420.7 416.48C421.808 419.788 422.263 423.279 422.04 426.76C421.804 430.271 420.955 433.713 419.53 436.93C419.476 437.055 419.449 437.189 419.449 437.325C419.449 437.461 419.476 437.595 419.53 437.72C419.97 438.973 420.39 440.223 420.79 441.47C420.836 441.646 420.929 441.806 421.06 441.933C421.19 442.06 421.353 442.149 421.53 442.19C421.737 442.254 421.953 442.288 422.17 442.29C423.32 442.29 424.48 442.29 425.62 442.12C428.888 441.695 432.121 441.026 435.29 440.12L436.96 439.63C439.52 438.84 443.65 437.49 447.41 436.23C450.62 435.15 453.56 434.13 455.03 433.58C455.27 433.49 455.48 433.42 455.63 433.35C457.83 432.47 460 431.52 462.14 430.5C463.8 429.7 465.41 428.79 467 427.86C467.652 427.433 468.261 426.944 468.82 426.4C468.97 426.258 469.073 426.074 469.114 425.872C469.155 425.669 469.133 425.459 469.05 425.27C468.55 423.94 468.15 422.64 467.7 421.36Z" fill="#BF8651"/>
<path d="M439.94 441C439.807 441.042 439.689 441.12 439.599 441.227C439.509 441.333 439.45 441.462 439.43 441.6C439.411 441.738 439.43 441.879 439.487 442.006C439.543 442.134 439.635 442.242 439.75 442.32C440.995 443.114 442.401 443.62 443.866 443.8C445.332 443.981 446.819 443.832 448.219 443.364C449.619 442.897 450.897 442.122 451.96 441.097C453.022 440.072 453.843 438.823 454.36 437.44C454.41 437.309 454.42 437.166 454.39 437.029C454.361 436.892 454.292 436.766 454.193 436.667C454.094 436.568 453.968 436.5 453.831 436.47C453.694 436.44 453.552 436.451 453.42 436.5L448.08 438.32C445.41 439.18 442.4 440.17 439.94 441Z" fill="#BF8651"/>
<path d="M300.69 357C300.71 356.816 300.671 356.631 300.58 356.47C298.914 354.005 297.617 351.31 296.73 348.47C295.594 344.921 295.229 341.171 295.66 337.47C295.93 335.33 296.27 333.2 296.55 331.06C296.675 330.189 296.745 329.31 296.76 328.43C296.773 324.229 295.281 320.162 292.556 316.965C289.83 313.768 286.05 311.652 281.9 311C281.072 310.875 280.237 310.801 279.4 310.78C275.844 310.664 272.342 311.679 269.4 313.68C267.41 314.963 265.718 316.66 264.442 318.655C263.165 320.649 262.332 322.895 262 325.24C261.67 327.24 261.41 329.24 261.1 331.24C260.584 334.688 259.402 338.003 257.62 341C255.815 344.022 253.497 346.705 250.77 348.93C250.661 349.01 250.569 349.112 250.5 349.229C250.431 349.346 250.387 349.475 250.37 349.61C250.19 350.92 250 352.23 249.79 353.53C249.746 353.711 249.754 353.9 249.813 354.077C249.871 354.254 249.977 354.411 250.12 354.53C250.275 354.68 250.45 354.807 250.64 354.91C251.64 355.4 252.72 355.91 253.8 356.33C256.911 357.424 260.1 358.283 263.34 358.9L265.05 359.22C267.69 359.69 271.98 360.36 275.91 360.94C279.25 361.44 282.33 361.87 283.91 362.05L284.55 362.12C286.91 362.333 289.273 362.47 291.64 362.53C293.48 362.53 295.33 362.53 297.17 362.39C297.946 362.299 298.713 362.139 299.46 361.91C299.656 361.851 299.83 361.733 299.957 361.572C300.084 361.411 300.158 361.215 300.17 361.01C300.28 359.63 300.51 358.29 300.69 357Z" fill="#BF8651"/>
<path d="M267.06 361.79C266.921 361.765 266.778 361.781 266.647 361.835C266.517 361.888 266.405 361.978 266.324 362.094C266.243 362.21 266.197 362.346 266.191 362.487C266.185 362.628 266.219 362.768 266.29 362.89C267.041 364.159 268.065 365.246 269.288 366.07C270.511 366.894 271.902 367.436 273.361 367.655C274.819 367.874 276.308 367.766 277.719 367.338C279.131 366.91 280.429 366.173 281.52 365.18C281.624 365.084 281.699 364.961 281.735 364.824C281.771 364.688 281.768 364.543 281.725 364.409C281.681 364.274 281.601 364.155 281.492 364.064C281.383 363.974 281.25 363.917 281.11 363.9C279.6 363.7 277.7 363.43 275.53 363.1C272.74 362.69 269.61 362.21 267.06 361.79Z" fill="#BF8651"/>
<path d="M336.05 64.7899C334.844 64.3202 333.59 63.9848 332.31 63.7899C328.752 63.1873 325.148 62.9029 321.54 62.9399H320.54L321.25 62.2399C323.82 59.7109 326.163 56.9602 328.25 54.0199C329.006 52.9632 329.643 51.8264 330.15 50.6299C330.57 49.5399 331.05 47.4899 329.56 45.9999C329.219 45.6721 328.816 45.4149 328.375 45.2433C327.934 45.0717 327.463 44.989 326.99 44.9999V44.9999C325.93 44.9999 324.25 45.3299 320.69 47.9199C318.072 49.8712 315.608 52.0208 313.32 54.3499C313.08 54.5799 312.85 54.8199 312.62 55.0599V54.0599C312.66 50.4488 312.378 46.8413 311.78 43.2799C311.568 41.9974 311.212 40.7429 310.72 39.5399C310.25 38.4799 309.14 36.6899 307.03 36.6899C306.12 36.6899 304.44 37.0599 303.34 39.5399C302.852 40.7444 302.496 41.9985 302.28 43.2799C301.687 46.842 301.405 50.449 301.44 54.0599V55.0599C301.21 54.8199 300.98 54.5799 300.74 54.3499C298.452 52.0208 295.988 49.8712 293.37 47.9199C289.81 45.3299 288.14 44.9999 287.07 44.9999C286.598 44.9898 286.129 45.0729 285.69 45.2445C285.251 45.4161 284.85 45.6728 284.51 45.9999C283.86 46.6399 282.93 48.0999 283.91 50.6299C284.417 51.8264 285.054 52.9632 285.81 54.0199C287.897 56.9602 290.24 59.7109 292.81 62.2399L293.52 62.9399H292.52C288.912 62.9033 285.308 63.1877 281.75 63.7899C280.47 63.9848 279.216 64.3202 278.01 64.7899C276.94 65.2699 275.15 66.3699 275.15 68.4899C275.15 69.3899 275.53 71.0799 278.01 72.1799C279.213 72.6707 280.468 73.0262 281.75 73.2399C285.309 73.8334 288.912 74.1144 292.52 74.0799H293.52L292.81 74.7799C290.24 77.309 287.897 80.0596 285.81 82.9999C285.054 84.0566 284.417 85.1935 283.91 86.3899C283.49 87.4799 283.01 89.5299 284.51 91.0199C284.85 91.3466 285.251 91.603 285.69 91.7746C286.13 91.9462 286.598 92.0296 287.07 92.0199C288.14 92.0199 289.81 91.6799 293.37 89.0899C295.988 87.1387 298.452 84.989 300.74 82.6599C300.98 82.4299 301.21 82.1899 301.44 81.9499V82.9499C301.405 86.5609 301.687 90.1679 302.28 93.7299C302.495 95.0117 302.851 96.2659 303.34 97.4699C303.81 98.5299 304.92 100.32 307.03 100.32C307.94 100.32 309.62 99.9499 310.72 97.4699C311.214 96.2675 311.569 95.0127 311.78 93.7299C312.378 90.1686 312.66 86.561 312.62 82.9499V81.9499C312.85 82.1899 313.08 82.4299 313.32 82.6599C315.608 84.989 318.072 87.1387 320.69 89.0899C324.27 91.6999 326 91.9999 327 91.9999C327.955 92.0198 328.879 91.6602 329.57 90.9999C330.21 90.3599 331.14 88.9099 330.16 86.3699C329.653 85.1735 329.016 84.0366 328.26 82.9799C326.173 80.0396 323.83 77.289 321.26 74.7599L320.55 74.0599H321.55C325.158 74.0948 328.761 73.8138 332.32 73.2199C333.602 73.0062 334.856 72.6507 336.06 72.1599C337.13 71.6899 338.92 70.5799 338.92 68.4699C338.91 67.5799 338.54 65.8899 336.05 64.7899Z" fill="#BF8651"/>
</svg>
