<svg id="Layer_1" data-name="Layer 1" xmlns="http://www.w3.org/2000/svg" width="1920" height="1080" viewBox="0 0 1920 1080"><defs><style>.cls-1{fill:#e6e6e6;}.cls-2{fill:#ccc;}.cls-3{fill:#bf8651;}.cls-4{fill:#326e60;}.cls-5{fill:#999;}.cls-6{fill:#b3b3b3;}.cls-7{fill:#682332;}.cls-8{fill:#661715;}.cls-9{fill:#f2f2f2;}</style></defs><rect class="cls-1" x="742.96" y="861.45" width="88.76" height="88.76" rx="5.25"/><polygon class="cls-2" points="802.42 859.45 792.17 859.45 799.42 852.2 796.59 849.37 789.34 856.62 789.34 846.37 785.34 846.37 785.34 856.62 778.09 849.37 775.26 852.2 782.51 859.45 772.26 859.45 772.26 863.45 782.51 863.45 775.26 870.7 778.09 873.53 785.34 866.28 785.34 876.53 789.34 876.53 789.34 866.28 796.59 873.53 799.42 870.7 792.17 863.45 802.42 863.45 802.42 859.45"/><path class="cls-3" d="M911.29,752.2V858.53c0,4.76,15.56,8.62,34.76,8.62s34.76-3.86,34.76-8.62V752.2Z"/><path class="cls-4" d="M946.05,756.63c12.53,39.53,67.06,25.22,72.1,2.86a52.25,52.25,0,0,0,89.53,1.77c7.81,13.52,24.44,20.34,40,19.39s30.1-8.63,42.26-18.43a30.44,30.44,0,0,0,7.49-9.78c10-19.35,4.83-43.13-11.78-57.24-1.73-1.31-60.79-63.4-60.79-63.4,26.08,13.56,43.42-1.59,46.76-18.49,0-.08,0-.17,0-.25a37.42,37.42,0,0,0-10.94-34c-19.49-18.81-62.34-61-73.21-78.39,16.42,7.6,37.47,5.36,50.68-7,.45-.42.88-.85,1.31-1.3,15.44-16,11.33-42.52-7.68-54.12-70.19-42.78-69.84-54.15-69.84-54.15a21.92,21.92,0,0,0,35.41-15.46c1.1-13.56-10.24-24.85-21.81-32s-59.1-46.1-66-63.87a21.13,21.13,0,0,0,38-.92c4.16-9.15,1.21-20.26-4.76-28.35s-14.53-13.8-22.82-19.48c-29.91-20.48-60-44.21-73.74-77.77h-.48c-13.73,33.56-43.82,57.29-73.74,77.77-8.29,5.68-16.84,11.4-22.81,19.48s-8.93,19.2-4.76,28.35a21.12,21.12,0,0,0,38,.92c-6.91,17.77-54.43,56.74-66,63.87s-22.91,18.43-21.82,32a21.92,21.92,0,0,0,35.42,15.46s.34,11.37-69.85,54.15c-19,11.6-23.12,38.07-7.68,54.12.43.45.87.88,1.32,1.3,13.2,12.37,34.25,14.61,50.67,7-10.86,17.41-53.72,59.58-73.21,78.39a37.42,37.42,0,0,0-10.94,34c0,.08,0,.17.05.25,3.35,16.9,20.69,32.05,46.76,18.49,0,0-59.06,62.09-60.79,63.4-16.61,14.11-21.78,37.89-11.78,57.24a30.32,30.32,0,0,0,7.5,9.78c12.15,9.8,26.66,17.47,42.25,18.43s32.22-5.87,40-19.39A52.24,52.24,0,0,0,874,759.49C876.11,779.8,925.86,796.85,946.05,756.63Z"/><rect class="cls-2" x="824.98" y="831.95" width="132.69" height="132.69" rx="5.25"/><rect class="cls-5" x="1015.95" y="804.34" width="203.14" height="125.43" rx="5.25"/><polygon class="cls-6" points="1219.09 863.56 1074.78 863.56 1082.94 855.39 1077.99 850.44 1070.32 858.12 1070.32 804.34 1063.32 804.34 1063.32 859.02 1054.66 850.37 1049.71 855.32 1057.95 863.56 1015.95 863.56 1015.95 870.56 1057.88 870.56 1049.71 878.72 1054.66 883.67 1063.32 875.01 1063.32 929.77 1070.32 929.77 1070.32 875.92 1077.99 883.6 1082.94 878.65 1074.85 870.56 1219.09 870.56 1219.09 863.56"/><rect class="cls-6" x="886.83" y="831.95" width="9" height="132.69"/><rect class="cls-6" x="824.99" y="893.79" width="132.69" height="9"/><path class="cls-6" d="M857.17,842.7l4.37-8.9a4.22,4.22,0,0,0,0-3.7l-4.37-8.9a4.19,4.19,0,0,1,5.64-5.6L888,828.2a4.19,4.19,0,0,1,0,7.5l-25.2,12.6A4.2,4.2,0,0,1,857.17,842.7Z"/><path class="cls-6" d="M925.49,821.2l-4.37,8.9a4.22,4.22,0,0,0,0,3.7l4.37,8.9a4.2,4.2,0,0,1-5.64,5.6l-25.2-12.6a4.19,4.19,0,0,1,0-7.5l25.2-12.6A4.19,4.19,0,0,1,925.49,821.2Z"/><rect class="cls-6" x="884.65" y="825.27" width="13.36" height="13.36" rx="1.17"/><rect class="cls-1" x="980.64" y="889.59" width="103.79" height="103.79" rx="51.89"/><path class="cls-6" d="M1084.43,938.49h-30.29l2.21-4.5a2.92,2.92,0,0,0-3.93-3.9l-15.28,7.64a1.17,1.17,0,0,0-1.12-.9h-.48V889.59h-6v47.24h-.49a1.15,1.15,0,0,0-1.11.9l-15.28-7.64a2.92,2.92,0,0,0-3.93,3.9l2.21,4.5h-30.3v6h30.3l-2.21,4.49a2.92,2.92,0,0,0,3.93,3.9l15.28-7.64a1.15,1.15,0,0,0,1.11.9h.49v47.24h6V946.14h.48a1.17,1.17,0,0,0,1.12-.9l15.28,7.64a2.92,2.92,0,0,0,3.93-3.9l-2.21-4.49h30.29Z"/><path d="M1018.81,218.24c-7.69,21.06-23.34,38.29-41.95,50.41-21.12,13.74-45.79,20.68-70.63,23.62a344.64,344.64,0,0,1-45.43,2,1.51,1.51,0,0,0-1.3,2.25c17,26.87,40.72,49.12,67.84,65.62a232.52,232.52,0,0,0,90,31.76,212,212,0,0,0,54,.3l-1.3-2.26a276.1,276.1,0,0,1-42,48.45,303.35,303.35,0,0,1-52,38.27,316.53,316.53,0,0,1-58.76,26.71,307.86,307.86,0,0,1-63.09,14.16,283.64,283.64,0,0,1-63.94.17q-4-.45-8.07-1a1.51,1.51,0,0,0-1.16,2.75,23.89,23.89,0,0,1,3.36,2.72c1.69,1.52,3.31,3.11,4.92,4.7,4.58,4.53,9.09,9.14,13.68,13.65a456.21,456.21,0,0,0,44,38.3,374.8,374.8,0,0,0,67.52,40.86,367.64,367.64,0,0,0,92.81,29c39.8,6.88,80.51,7.39,120.6,2.86q8.1-.91,16.16-2.09c1.91-.27,1.1-3.16-.79-2.89-40.87,5.9-82.61,6.85-123.55,1.06a363.28,363.28,0,0,1-165.27-67,432.17,432.17,0,0,1-46-38.95c-4.94-4.78-9.78-9.66-14.63-14.52a115.91,115.91,0,0,0-9.54-9c-.58-.46-1.17-.91-1.79-1.31l-1.15,2.74a283.44,283.44,0,0,0,64.89,1.77,309.55,309.55,0,0,0,63.88-12.51,321.18,321.18,0,0,0,60.45-25.62,309.61,309.61,0,0,0,53.66-37.4A281.63,281.63,0,0,0,1068,400.14c1.61-2.22,3.18-4.47,4.71-6.73a1.5,1.5,0,0,0-1.29-2.26c-31.29,3.91-63.25.44-93.24-9.17a224.31,224.31,0,0,1-81.91-46.74A195.53,195.53,0,0,1,862.1,295l-1.3,2.26c27.54.41,55.55-1.23,82-9.49,22.42-7,43.53-19.08,59.37-36.62A98.42,98.42,0,0,0,1021.7,219c.66-1.82-2.24-2.6-2.89-.8Z"/><circle class="cls-7" cx="991.77" cy="323.68" r="15.46"/><circle class="cls-7" cx="851.44" cy="436.79" r="15.46"/><circle class="cls-7" cx="901.12" cy="668.82" r="15.46"/><circle class="cls-7" cx="1010.05" cy="559.89" r="15.46"/><circle class="cls-7" cx="773.77" cy="709.27" r="15.46"/><circle class="cls-8" cx="913.47" cy="234.1" r="15.46"/><circle class="cls-7" cx="1071.8" cy="712.85" r="15.46"/><circle class="cls-9" cx="994.59" cy="255.87" r="6.31"/><circle class="cls-9" cx="949.26" cy="372.03" r="6.31"/><circle class="cls-9" cx="984.54" cy="384.88" r="6.31"/><circle class="cls-9" cx="1025.52" cy="394.17" r="6.31"/><circle class="cls-9" cx="1071.8" cy="394.17" r="6.31"/><circle class="cls-9" cx="1042.9" cy="427.84" r="6.31"/><circle class="cls-9" cx="1000.9" cy="462.7" r="6.31"/><circle class="cls-9" cx="955.56" cy="491.86" r="6.31"/><circle class="cls-9" cx="946.05" cy="633.49" r="6.31"/><circle class="cls-9" cx="1010.05" cy="650.19" r="6.31"/><circle class="cls-9" cx="1078.11" cy="654.95" r="6.31"/><circle class="cls-9" cx="1143.72" cy="648.64" r="6.31"/><circle class="cls-9" cx="907.43" cy="509.61" r="6.31"/><circle class="cls-9" cx="894.17" cy="609.74" r="6.31"/><circle class="cls-9" cx="849.56" cy="520.69" r="6.31"/><circle class="cls-9" cx="849.56" cy="581.66" r="6.31"/><circle class="cls-9" cx="811.21" cy="550.73" r="6.31"/><circle class="cls-9" cx="781.84" cy="520.69" r="6.31"/><circle class="cls-9" cx="1019.85" cy="218.64" r="6.31"/><circle class="cls-9" cx="955.56" cy="280.88" r="6.31"/><circle class="cls-9" cx="915.98" cy="351.76" r="6.31"/><circle class="cls-9" cx="913.47" cy="293.49" r="6.31"/><circle class="cls-9" cx="887.86" cy="329.99" r="6.31"/><circle class="cls-9" cx="864.06" cy="296.21" r="6.31"/><path class="cls-3" d="M831.74,659.33a.83.83,0,0,0,0-.54,30.68,30.68,0,0,1-2-8.64,26.07,26.07,0,0,1,1.31-11c.72-2,1.51-4,2.24-6.07a22.35,22.35,0,0,0,.77-2.53,17.58,17.58,0,0,0-10.8-20.12,19.91,19.91,0,0,0-2.41-.75,16.85,16.85,0,0,0-10.38.69,16.55,16.55,0,0,0-9.75,9.68c-.74,1.88-1.43,3.78-2.16,5.66a26.88,26.88,0,0,1-5.48,8.79,30.19,30.19,0,0,1-8.39,6.28,1,1,0,0,0-.54.58c-.45,1.24-.91,2.48-1.4,3.7a1,1,0,0,0,.11,1,2.26,2.26,0,0,0,.43.49c.92.7,1.81,1.44,2.78,2.06a67.52,67.52,0,0,0,8.77,4.56l1.61.67c2.48,1,6.52,2.59,10.23,4,3.17,1.2,6.08,2.28,7.57,2.79l.61.21q3.39,1.07,6.84,1.91c1.79.44,3.61.76,5.43,1.05a12.19,12.19,0,0,0,2.34,0,1,1,0,0,0,.89-.72C830.76,661.86,831.27,660.6,831.74,659.33Z"/><path class="cls-3" d="M797.85,656.87a.74.74,0,0,0-1,.91,9.92,9.92,0,0,0,14.39,5.49.74.74,0,0,0-.13-1.33c-1.43-.52-3.23-1.2-5.28-2C803.21,659,800.25,657.82,797.85,656.87Z"/><path class="cls-3" d="M1106.7,503.36a.94.94,0,0,0-.34-.42,30.35,30.35,0,0,1-7.06-5.38,26,26,0,0,1-6-9.32c-.73-2-1.39-4.07-2.12-6.1a19.36,19.36,0,0,0-1-2.45A17.57,17.57,0,0,0,1069.1,471a20.74,20.74,0,0,0-2.33.95,16.82,16.82,0,0,0-7.59,7.12,16.53,16.53,0,0,0-1.4,13.66c.61,1.93,1.29,3.83,1.92,5.75a26.94,26.94,0,0,1,1.34,10.28,30.09,30.09,0,0,1-2.51,10.17,1,1,0,0,0,0,.79q.66,1.88,1.26,3.75a1,1,0,0,0,.74.72,2.25,2.25,0,0,0,.64.1c1.15,0,2.31,0,3.45-.17a66.22,66.22,0,0,0,9.67-2l1.67-.49c2.56-.79,6.69-2.14,10.45-3.4,3.21-1.08,6.15-2.1,7.62-2.65.24-.09.45-.16.6-.23q3.3-1.32,6.51-2.85c1.66-.8,3.27-1.71,4.86-2.64a12.13,12.13,0,0,0,1.82-1.46,1,1,0,0,0,.23-1.13C1107.55,505.94,1107.15,504.64,1106.7,503.36Z"/><path class="cls-3" d="M1078.94,523a.74.74,0,0,0-.19,1.32,9.91,9.91,0,0,0,14.61-4.88.73.73,0,0,0-.94-.94l-5.34,1.82C1084.41,521.18,1081.4,522.17,1078.94,523Z"/><path class="cls-3" d="M939.69,439a.88.88,0,0,0-.11-.53,30.6,30.6,0,0,1-3.85-8,26.17,26.17,0,0,1-1.07-11c.27-2.14.61-4.27.89-6.41a21,21,0,0,0,.21-2.63A17.59,17.59,0,0,0,920.9,393a20.2,20.2,0,0,0-2.5-.22,16.81,16.81,0,0,0-10,2.9A16.51,16.51,0,0,0,901,407.24c-.33,2-.59,4-.9,6a26.88,26.88,0,0,1-3.48,9.76,30.25,30.25,0,0,1-6.85,7.93,1,1,0,0,0-.4.68c-.18,1.31-.37,2.62-.58,3.92a1,1,0,0,0,.33,1,2.39,2.39,0,0,0,.52.38c1,.49,2.08,1,3.16,1.42a65.87,65.87,0,0,0,9.54,2.57l1.71.32c2.64.47,6.93,1.14,10.86,1.72,3.34.5,6.42.93,8,1.11l.64.07q3.54.32,7.09.41c1.84,0,3.69,0,5.53-.14a13,13,0,0,0,2.29-.48,1,1,0,0,0,.71-.9C939.28,441.63,939.51,440.29,939.69,439Z"/><path class="cls-3" d="M906.06,443.79a.74.74,0,0,0-.77,1.1,9.93,9.93,0,0,0,15.23,2.29.74.74,0,0,0-.41-1.28c-1.51-.2-3.41-.47-5.58-.8C911.74,444.69,908.61,444.21,906.06,443.79Z"/><path class="cls-3" d="M975.05,146.79a17.61,17.61,0,0,0-3.74-1,60.75,60.75,0,0,0-10.77-.85h-1l.71-.7a61.38,61.38,0,0,0,7-8.22,17.67,17.67,0,0,0,1.9-3.39c.42-1.09.9-3.14-.59-4.63a3.59,3.59,0,0,0-2.57-1h0c-1.06,0-2.74.33-6.3,2.92a63.68,63.68,0,0,0-7.37,6.43c-.24.23-.47.47-.7.71v-1a61,61,0,0,0-.84-10.78,17.31,17.31,0,0,0-1.06-3.74c-.47-1.06-1.58-2.85-3.69-2.85-.91,0-2.59.37-3.69,2.85a17.9,17.9,0,0,0-1.06,3.74,62,62,0,0,0-.84,10.78v1c-.23-.24-.46-.48-.7-.71a63.68,63.68,0,0,0-7.37-6.43c-3.56-2.59-5.23-2.92-6.3-2.92a3.58,3.58,0,0,0-2.56,1c-.65.64-1.58,2.1-.6,4.63a17.67,17.67,0,0,0,1.9,3.39,61.38,61.38,0,0,0,7,8.22l.71.7h-1a60.83,60.83,0,0,0-10.77.85,17.61,17.61,0,0,0-3.74,1c-1.07.48-2.86,1.58-2.86,3.7,0,.9.38,2.59,2.86,3.69a17.55,17.55,0,0,0,3.74,1.06,61.88,61.88,0,0,0,10.77.84h1l-.71.7a61.38,61.38,0,0,0-7,8.22,17.67,17.67,0,0,0-1.9,3.39c-.42,1.09-.9,3.14.6,4.63a3.59,3.59,0,0,0,2.56,1c1.07,0,2.74-.34,6.3-2.93a63.68,63.68,0,0,0,7.37-6.43c.24-.23.47-.47.7-.71v1a62,62,0,0,0,.84,10.78,17.73,17.73,0,0,0,1.06,3.74c.47,1.06,1.58,2.85,3.69,2.85.91,0,2.59-.37,3.69-2.85a17.15,17.15,0,0,0,1.06-3.74,61,61,0,0,0,.84-10.78v-1c.23.24.46.48.7.71a63.68,63.68,0,0,0,7.37,6.43C963.27,173.7,965,174,966,174a3.61,3.61,0,0,0,2.57-1c.64-.64,1.57-2.09.59-4.63a17.67,17.67,0,0,0-1.9-3.39,61.38,61.38,0,0,0-7-8.22l-.71-.7h1a61.8,61.8,0,0,0,10.77-.84,17.55,17.55,0,0,0,3.74-1.06c1.07-.47,2.86-1.58,2.86-3.69C977.91,149.58,977.54,147.89,975.05,146.79Z"/></svg>