<svg width="34" height="56" viewBox="0 0 34 56" fill="#f5dfbc" stroke="#f5dfbc" xmlns="http://www.w3.org/2000/svg">
<path fill-rule="evenodd" clip-rule="evenodd" d="M34 19H29V3C29 1.346 27.654 0 26 0C24.346 0 23 1.346 23 3V19H11V3C11 1.346 9.654 0 8 0C6.346 0 5 1.346 5 3V19H0V27.162C0 31.158 1.713 34.972 4.699 37.626L6.651 39.361C8.144 40.688 9.001 42.595 9.001 44.593V48H11.001V52H12.501V56H21.501V52H23V48H25V44.593C25 42.595 25.856 40.688 27.35 39.361L29.302 37.626C32.287 34.972 34 31.158 34 27.162V19ZM25 3C25 2.449 25.449 2 26 2C26.551 2 27 2.449 27 3V19H25V3ZM7 3C7 2.449 7.449 2 8 2C8.551 2 9 2.449 9 3V19H7V3ZM19.5 54H14.5V52H19.5V54ZM21 50H13V48H21V50ZM32 27.162C32 30.587 30.532 33.856 27.972 36.131L26.02 37.866C24.101 39.572 23 42.024 23 44.593V46H11V44.593C11 42.024 9.899 39.572 7.979 37.866L6.027 36.131C3.468 33.856 2 30.587 2 27.162V21H5H11H23H29H32V27.162ZM27.5 24H6.5V26H27.5V24ZM9.5 28H24.5V30H9.5V28Z" fill="black"/>
</svg>
