<svg width="52" height="51" viewBox="0 0 52 51" fill="none" xmlns="http://www.w3.org/2000/svg">
<path d="M51.574 41.3227C51.5523 41.14 51.4774 40.9677 51.3586 40.8272C49.2333 38.7458 47.4255 36.3634 45.9932 33.7562C44.1481 30.5056 43.0256 26.8954 42.7021 23.1717C42.5331 21.0493 42.4503 18.8783 42.2894 16.727C42.2464 15.845 42.1432 14.9668 41.9805 14.0989C41.1373 10.006 38.8629 6.34769 35.5656 3.78053C32.2684 1.21336 28.164 -0.0945721 23.9894 0.0915165C23.1512 0.138441 22.3166 0.236239 21.4903 0.384323C17.9844 0.980401 14.7577 2.67232 12.2736 5.21704C10.5724 6.86597 9.24559 8.86129 8.383 11.0678C7.5204 13.2744 7.14219 15.6406 7.27402 18.0061C7.34607 20.0289 7.49351 22.0415 7.5875 24.06C7.77127 27.5434 7.27689 31.0294 6.13164 34.3243C4.9664 37.6443 3.22788 40.7342 0.995105 43.4536C0.910061 43.5595 0.847496 43.6817 0.811199 43.8125C0.774902 43.9434 0.76564 44.0803 0.783993 44.2149C0.873052 45.5402 0.943738 46.857 0.996033 48.1652C0.993508 48.3471 1.04066 48.5263 1.13241 48.6834C1.22416 48.8405 1.35701 48.9696 1.51669 49.0568C1.69943 49.1739 1.89818 49.264 2.10671 49.3242C3.21489 49.6315 4.33264 49.9415 5.47661 50.0823C8.73995 50.5462 12.0334 50.7658 15.3294 50.7393L17.0696 50.7134C19.7476 50.6362 24.0882 50.439 28.0482 50.2297C31.4301 50.0468 34.5357 49.8496 36.0992 49.7124C36.3545 49.6899 36.5756 49.6785 36.7389 49.6511C39.094 49.391 41.439 49.0555 43.7737 48.6445C45.5871 48.3172 47.3818 47.8705 49.1625 47.3993C49.905 47.162 50.623 46.8538 51.3064 46.4787C51.4891 46.3825 51.6375 46.2321 51.7312 46.0481C51.825 45.8642 51.8596 45.6557 51.8301 45.4513C51.7037 44.0361 51.6656 42.6764 51.574 41.3227Z" fill="#BF8651"/>
</svg>
